<svg width="28" height="29" viewBox="0 0 28 29" fill="none" xmlns="http://www.w3.org/2000/svg">
<rect y="0.868042" width="28" height="28" rx="6" fill="#36363D"/>
<path d="M13.1033 8.3513C13.4701 7.60813 14.5299 7.60813 14.8967 8.3513L16.3426 11.2804C16.4881 11.5753 16.7693 11.7797 17.0947 11.8273L20.3296 12.3001C21.1495 12.42 21.4763 13.4278 20.8827 14.006L18.5435 16.2843C18.3076 16.5141 18.1999 16.8452 18.2556 17.1697L18.8074 20.3873C18.9476 21.2043 18.09 21.8272 17.3564 21.4414L14.4655 19.9211C14.1741 19.7679 13.826 19.7679 13.5346 19.9211L10.6437 21.4414C9.91002 21.8272 9.05247 21.2043 9.19259 20.3873L9.74444 17.1697C9.8001 16.8452 9.69244 16.5141 9.45656 16.2843L7.11737 14.006C6.52377 13.4278 6.85056 12.42 7.67047 12.3001L10.9054 11.8273C11.2307 11.7797 11.5119 11.5753 11.6575 11.2804L13.1033 8.3513Z" fill="#D9D9D9"/>
</svg>
