<svg width="200" height="200" viewBox="0 0 200 200" fill="none" xmlns="http://www.w3.org/2000/svg">
<path d="M33.3332 150V148.333C33.3332 134.332 33.3332 127.331 36.058 121.983C38.4548 117.279 42.2794 113.455 46.9834 111.058C52.3312 108.333 59.3319 108.333 73.3332 108.333H126.667C140.668 108.333 147.668 108.333 153.016 111.058C157.72 113.455 161.545 117.279 163.942 121.983C166.667 127.331 166.667 134.332 166.667 148.333V150M33.3332 150C24.1284 150 16.6665 157.462 16.6665 166.667C16.6665 175.871 24.1284 183.333 33.3332 183.333C42.5379 183.333 49.9998 175.871 49.9998 166.667C49.9998 157.462 42.5379 150 33.3332 150ZM166.667 150C157.462 150 150 157.462 150 166.667C150 175.871 157.462 183.333 166.667 183.333C175.871 183.333 183.333 175.871 183.333 166.667C183.333 157.462 175.871 150 166.667 150ZM99.9998 150C90.7951 150 83.3332 157.462 83.3332 166.667C83.3332 175.871 90.7951 183.333 99.9998 183.333C109.205 183.333 116.667 175.871 116.667 166.667C116.667 157.462 109.205 150 99.9998 150ZM99.9998 150V66.6665M49.9998 66.6665H150C157.766 66.6665 161.648 66.6665 164.711 65.3978C168.795 63.7063 172.04 60.4617 173.731 56.3779C175 53.315 175 49.4322 175 41.6665C175 33.9008 175 30.018 173.731 26.9551C172.04 22.8713 168.795 19.6267 164.711 17.9352C161.648 16.6665 157.766 16.6665 150 16.6665H49.9998C42.2341 16.6665 38.3513 16.6665 35.2884 17.9352C31.2046 19.6267 27.9601 22.8713 26.2685 26.9551C24.9998 30.018 24.9998 33.9008 24.9998 41.6665C24.9998 49.4322 24.9998 53.315 26.2685 56.3779C27.9601 60.4617 31.2046 63.7063 35.2884 65.3978C38.3513 66.6665 42.2341 66.6665 49.9998 66.6665Z" stroke="#C3C3CA" stroke-width="10" stroke-linecap="round" stroke-linejoin="round"/>
</svg>
