<svg width="200" height="200" viewBox="0 0 200 200" fill="none" xmlns="http://www.w3.org/2000/svg">
<path d="M141.667 83.3333V66.6667C141.667 43.6548 123.012 25 100 25C76.9883 25 58.3335 43.6548 58.3335 66.6667V83.3333M100 120.833V137.5M73.3335 175H126.667C140.668 175 147.669 175 153.017 172.275C157.721 169.878 161.545 166.054 163.942 161.35C166.667 156.002 166.667 149.001 166.667 135V123.333C166.667 109.332 166.667 102.331 163.942 96.9836C161.545 92.2795 157.721 88.455 153.017 86.0582C147.669 83.3333 140.668 83.3333 126.667 83.3333H73.3335C59.3322 83.3333 52.3315 83.3333 46.9837 86.0582C42.2797 88.455 38.4552 92.2795 36.0583 96.9836C33.3335 102.331 33.3335 109.332 33.3335 123.333V135C33.3335 149.001 33.3335 156.002 36.0583 161.35C38.4552 166.054 42.2797 169.878 46.9837 172.275C52.3315 175 59.3322 175 73.3335 175Z" stroke="#C3C3CA" stroke-width="10" stroke-linecap="round" stroke-linejoin="round"/>
</svg>
