<svg width="200" height="200" viewBox="0 0 200 200" fill="none" xmlns="http://www.w3.org/2000/svg">
<path d="M158.333 74.9998C158.333 107.216 132.217 133.333 100 133.333M158.333 74.9998C158.333 42.7832 132.217 16.6665 100 16.6665M158.333 74.9998H41.6667M100 133.333C67.7834 133.333 41.6667 107.216 41.6667 74.9998M100 133.333C114.591 117.359 122.89 96.6296 123.341 74.9998C122.89 53.37 114.591 32.6402 100 16.6665M100 133.333C85.4092 117.359 77.1249 96.6296 76.6743 74.9998C77.1249 53.37 85.4092 32.6402 100 16.6665M100 133.333V150M41.6667 74.9998C41.6667 42.7832 67.7834 16.6665 100 16.6665M116.667 166.667C116.667 175.871 109.205 183.333 100 183.333C90.7953 183.333 83.3333 175.871 83.3333 166.667M116.667 166.667C116.667 157.462 109.205 150 100 150M116.667 166.667H175M83.3333 166.667C83.3333 157.462 90.7953 150 100 150M83.3333 166.667H25" stroke="#C3C3CA" stroke-width="10" stroke-linecap="round" stroke-linejoin="round"/>
</svg>
